<svg width="644" height="156" viewBox="0 0 644 156" fill="none" xmlns="http://www.w3.org/2000/svg">
<rect x="13.5" y="14" width="60" height="60" rx="8" fill="#2DD27F"/>
<rect x="81.5" y="14" width="60" height="60" rx="8" fill="#4D4D4D"/>
<rect x="13.5" y="82" width="60" height="60" rx="8" fill="#808080"/>
<rect x="81.5" y="82" width="60" height="60" rx="8" fill="#1B7E4D"/>
<path d="M174.82 120L207.94 36.36H218.5L251.5 120H236.38L213.22 56.64L190.06 120H174.82ZM195.46 102.48L199.78 90.12H226.54L231.1 102.48H195.46ZM258.236 120V60.84H271.556V73.92L269.156 74.52C270.196 71.08 271.716 68.28 273.716 66.12C275.716 63.96 278.036 62.36 280.676 61.32C283.396 60.28 286.236 59.76 289.196 59.76C295.836 59.76 300.996 61.68 304.676 65.52C308.436 69.28 310.316 74.68 310.316 81.72V120H296.996V86.64C296.996 81.36 296.036 77.48 294.116 75C292.196 72.52 289.236 71.28 285.236 71.28C282.276 71.28 279.756 72 277.676 73.44C275.676 74.8 274.156 76.96 273.116 79.92C272.076 82.88 271.556 86.64 271.556 91.2V120H258.236ZM344.347 121.08C341.387 121.08 338.587 120.52 335.947 119.4C333.387 118.2 331.347 116.32 329.827 113.76C328.307 111.12 327.547 107.68 327.547 103.44V46.44L340.987 39V99.72C340.987 103.08 341.467 105.68 342.427 107.52C343.467 109.28 345.307 110.16 347.947 110.16C348.747 110.16 349.667 110.08 350.707 109.92C351.827 109.68 352.987 109.4 354.187 109.08V119.4C352.587 119.96 350.947 120.36 349.267 120.6C347.667 120.92 346.027 121.08 344.347 121.08ZM316.267 71.16V60.84H354.187V71.16H316.267ZM363.589 120V60.84H376.909V120H363.589ZM362.989 51.12V36.36H377.509V51.12H362.989ZM410.18 121.08C405.94 121.08 402.18 120.48 398.9 119.28C395.62 118 392.86 116.4 390.62 114.48C388.38 112.56 386.54 110.64 385.1 108.72L394.22 100.8C395.74 103.28 397.82 105.48 400.46 107.4C403.18 109.32 406.46 110.28 410.3 110.28C413.5 110.28 416.02 109.6 417.86 108.24C419.78 106.88 420.74 105.2 420.74 103.2C420.74 101.44 420.14 100.08 418.94 99.12C417.74 98.08 416.18 97.2 414.26 96.48C412.34 95.76 410.22 95.12 407.9 94.56C405.66 94 403.38 93.32 401.06 92.52C398.74 91.64 396.58 90.56 394.58 89.28C392.66 88 391.1 86.36 389.9 84.36C388.7 82.36 388.1 79.88 388.1 76.92C388.1 71.72 390.1 67.56 394.1 64.44C398.1 61.32 403.34 59.76 409.82 59.76C414.46 59.76 418.7 60.68 422.54 62.52C426.38 64.36 429.38 67.12 431.54 70.8L423.26 77.16C421.66 74.76 419.66 72.96 417.26 71.76C414.86 70.56 412.26 69.96 409.46 69.96C406.9 69.96 404.74 70.48 402.98 71.52C401.3 72.56 400.46 73.92 400.46 75.6C400.46 76.88 400.86 77.92 401.66 78.72C402.46 79.52 403.7 80.24 405.38 80.88C407.06 81.52 409.18 82.16 411.74 82.8C414.14 83.36 416.62 84.04 419.18 84.84C421.74 85.64 424.1 86.72 426.26 88.08C428.5 89.36 430.3 91.12 431.66 93.36C433.1 95.52 433.82 98.32 433.82 101.76C433.82 105.6 432.82 109 430.82 111.96C428.9 114.84 426.14 117.08 422.54 118.68C419.02 120.28 414.9 121.08 410.18 121.08ZM464.625 121.08C459.985 121.08 456.065 120.16 452.865 118.32C449.745 116.48 447.385 113.84 445.785 110.4C444.185 106.96 443.385 102.8 443.385 97.92V60.84H456.705V94.32C456.705 97.44 457.065 100.16 457.785 102.48C458.585 104.72 459.825 106.44 461.505 107.64C463.265 108.84 465.625 109.44 468.585 109.44C472.025 109.44 474.705 108.56 476.625 106.8C478.625 104.96 480.025 102.32 480.825 98.88C481.705 95.36 482.145 91.16 482.145 86.28V60.84H495.465V120H482.145V107.28L484.425 108.12C482.585 112.6 479.905 115.88 476.385 117.96C472.945 120.04 469.025 121.08 464.625 121.08ZM508.736 120V60.84H522.056V73.92L519.656 74.52C520.696 71.08 522.216 68.28 524.216 66.12C526.216 63.96 528.536 62.36 531.176 61.32C533.896 60.28 536.736 59.76 539.696 59.76C546.336 59.76 551.496 61.68 555.176 65.52C558.936 69.28 560.816 74.68 560.816 81.72V120H547.496V86.64C547.496 81.36 546.536 77.48 544.616 75C542.696 72.52 539.736 71.28 535.736 71.28C532.776 71.28 530.256 72 528.176 73.44C526.176 74.8 524.656 76.96 523.616 79.92C522.576 82.88 522.056 86.64 522.056 91.2V120H508.736ZM599.287 121.08C594.327 121.08 590.007 120.28 586.327 118.68C582.727 117.08 579.767 114.84 577.447 111.96C575.127 109.08 573.407 105.84 572.287 102.24C571.167 98.56 570.607 94.76 570.607 90.84C570.607 86.92 571.127 83.12 572.167 79.44C573.287 75.68 574.967 72.32 577.207 69.36C579.447 66.4 582.327 64.08 585.847 62.4C589.367 60.64 593.527 59.76 598.327 59.76C602.887 59.76 606.847 60.56 610.207 62.16C613.647 63.68 616.487 65.84 618.727 68.64C620.967 71.36 622.607 74.48 623.647 78C624.767 81.52 625.327 85.28 625.327 89.28C625.327 89.84 625.287 90.64 625.207 91.68C625.207 92.72 625.127 93.76 624.967 94.8H583.927C584.247 99.52 585.847 103.12 588.727 105.6C591.607 108.08 595.287 109.32 599.767 109.32C603.047 109.32 606.047 108.8 608.767 107.76C611.487 106.72 613.967 105.08 616.207 102.84L623.527 111.72C621.047 113.96 618.567 115.76 616.087 117.12C613.607 118.48 611.007 119.48 608.287 120.12C605.647 120.76 602.647 121.08 599.287 121.08ZM612.247 88.08C612.407 87.44 612.487 86.8 612.487 86.16C612.567 85.52 612.607 84.88 612.607 84.24C612.607 82.48 612.287 80.8 611.647 79.2C611.087 77.6 610.207 76.2 609.007 75C607.807 73.72 606.327 72.72 604.567 72C602.807 71.2 600.807 70.8 598.567 70.8C595.447 70.8 592.807 71.48 590.647 72.84C588.567 74.2 586.927 75.96 585.727 78.12C584.607 80.2 583.927 82.48 583.687 84.96H616.567L612.247 88.08Z" fill="white"/>
</svg>
