<svg width="644" height="156" viewBox="0 0 644 156" fill="none" xmlns="http://www.w3.org/2000/svg">
<rect x="17" y="18" width="56" height="56" rx="8" fill="#2DD27F"/>
<rect x="81" y="18" width="56" height="56" rx="8" fill="#4D4D4D"/>
<rect x="17" y="82" width="56" height="56" rx="8" fill="#808080"/>
<rect x="81" y="82" width="56" height="56" rx="8" fill="#1B7E4D"/>
<path d="M170.32 120L203.44 36.36H214L247 120H231.88L208.72 56.64L185.56 120H170.32ZM190.96 102.48L195.28 90.12H222.04L226.6 102.48H190.96ZM253.736 120V60.84H267.056V73.92L264.656 74.52C265.696 71.08 267.216 68.28 269.216 66.12C271.216 63.96 273.536 62.36 276.176 61.32C278.896 60.28 281.736 59.76 284.696 59.76C291.336 59.76 296.496 61.68 300.176 65.52C303.936 69.28 305.816 74.68 305.816 81.72V120H292.496V86.64C292.496 81.36 291.536 77.48 289.616 75C287.696 72.52 284.736 71.28 280.736 71.28C277.776 71.28 275.256 72 273.176 73.44C271.176 74.8 269.656 76.96 268.616 79.92C267.576 82.88 267.056 86.64 267.056 91.2V120H253.736ZM339.847 121.08C336.887 121.08 334.087 120.52 331.447 119.4C328.887 118.2 326.847 116.32 325.327 113.76C323.807 111.12 323.047 107.68 323.047 103.44V46.44L336.487 39V99.72C336.487 103.08 336.967 105.68 337.927 107.52C338.967 109.28 340.807 110.16 343.447 110.16C344.247 110.16 345.167 110.08 346.207 109.92C347.327 109.68 348.487 109.4 349.687 109.08V119.4C348.087 119.96 346.447 120.36 344.767 120.6C343.167 120.92 341.527 121.08 339.847 121.08ZM311.767 71.16V60.84H349.687V71.16H311.767ZM359.089 120V60.84H372.409V120H359.089ZM358.489 51.12V36.36H373.009V51.12H358.489ZM405.68 121.08C401.44 121.08 397.68 120.48 394.4 119.28C391.12 118 388.36 116.4 386.12 114.48C383.88 112.56 382.04 110.64 380.6 108.72L389.72 100.8C391.24 103.28 393.32 105.48 395.96 107.4C398.68 109.32 401.96 110.28 405.8 110.28C409 110.28 411.52 109.6 413.36 108.24C415.28 106.88 416.24 105.2 416.24 103.2C416.24 101.44 415.64 100.08 414.44 99.12C413.24 98.08 411.68 97.2 409.76 96.48C407.84 95.76 405.72 95.12 403.4 94.56C401.16 94 398.88 93.32 396.56 92.52C394.24 91.64 392.08 90.56 390.08 89.28C388.16 88 386.6 86.36 385.4 84.36C384.2 82.36 383.6 79.88 383.6 76.92C383.6 71.72 385.6 67.56 389.6 64.44C393.6 61.32 398.84 59.76 405.32 59.76C409.96 59.76 414.2 60.68 418.04 62.52C421.88 64.36 424.88 67.12 427.04 70.8L418.76 77.16C417.16 74.76 415.16 72.96 412.76 71.76C410.36 70.56 407.76 69.96 404.96 69.96C402.4 69.96 400.24 70.48 398.48 71.52C396.8 72.56 395.96 73.92 395.96 75.6C395.96 76.88 396.36 77.92 397.16 78.72C397.96 79.52 399.2 80.24 400.88 80.88C402.56 81.52 404.68 82.16 407.24 82.8C409.64 83.36 412.12 84.04 414.68 84.84C417.24 85.64 419.6 86.72 421.76 88.08C424 89.36 425.8 91.12 427.16 93.36C428.6 95.52 429.32 98.32 429.32 101.76C429.32 105.6 428.32 109 426.32 111.96C424.4 114.84 421.64 117.08 418.04 118.68C414.52 120.28 410.4 121.08 405.68 121.08ZM460.125 121.08C455.485 121.08 451.565 120.16 448.365 118.32C445.245 116.48 442.885 113.84 441.285 110.4C439.685 106.96 438.885 102.8 438.885 97.92V60.84H452.205V94.32C452.205 97.44 452.565 100.16 453.285 102.48C454.085 104.72 455.325 106.44 457.005 107.64C458.765 108.84 461.125 109.44 464.085 109.44C467.525 109.44 470.205 108.56 472.125 106.8C474.125 104.96 475.525 102.32 476.325 98.88C477.205 95.36 477.645 91.16 477.645 86.28V60.84H490.965V120H477.645V107.28L479.925 108.12C478.085 112.6 475.405 115.88 471.885 117.96C468.445 120.04 464.525 121.08 460.125 121.08ZM504.236 120V60.84H517.556V73.92L515.156 74.52C516.196 71.08 517.716 68.28 519.716 66.12C521.716 63.96 524.036 62.36 526.676 61.32C529.396 60.28 532.236 59.76 535.196 59.76C541.836 59.76 546.996 61.68 550.676 65.52C554.436 69.28 556.316 74.68 556.316 81.72V120H542.996V86.64C542.996 81.36 542.036 77.48 540.116 75C538.196 72.52 535.236 71.28 531.236 71.28C528.276 71.28 525.756 72 523.676 73.44C521.676 74.8 520.156 76.96 519.116 79.92C518.076 82.88 517.556 86.64 517.556 91.2V120H504.236ZM594.787 121.08C589.827 121.08 585.507 120.28 581.827 118.68C578.227 117.08 575.267 114.84 572.947 111.96C570.627 109.08 568.907 105.84 567.787 102.24C566.667 98.56 566.107 94.76 566.107 90.84C566.107 86.92 566.627 83.12 567.667 79.44C568.787 75.68 570.467 72.32 572.707 69.36C574.947 66.4 577.827 64.08 581.347 62.4C584.867 60.64 589.027 59.76 593.827 59.76C598.387 59.76 602.347 60.56 605.707 62.16C609.147 63.68 611.987 65.84 614.227 68.64C616.467 71.36 618.107 74.48 619.147 78C620.267 81.52 620.827 85.28 620.827 89.28C620.827 89.84 620.787 90.64 620.707 91.68C620.707 92.72 620.627 93.76 620.467 94.8H579.427C579.747 99.52 581.347 103.12 584.227 105.6C587.107 108.08 590.787 109.32 595.267 109.32C598.547 109.32 601.547 108.8 604.267 107.76C606.987 106.72 609.467 105.08 611.707 102.84L619.027 111.72C616.547 113.96 614.067 115.76 611.587 117.12C609.107 118.48 606.507 119.48 603.787 120.12C601.147 120.76 598.147 121.08 594.787 121.08ZM607.747 88.08C607.907 87.44 607.987 86.8 607.987 86.16C608.067 85.52 608.107 84.88 608.107 84.24C608.107 82.48 607.787 80.8 607.147 79.2C606.587 77.6 605.707 76.2 604.507 75C603.307 73.72 601.827 72.72 600.067 72C598.307 71.2 596.307 70.8 594.067 70.8C590.947 70.8 588.307 71.48 586.147 72.84C584.067 74.2 582.427 75.96 581.227 78.12C580.107 80.2 579.427 82.48 579.187 84.96H612.067L607.747 88.08Z" fill="white"/>
</svg>
