<svg width="580" height="156" viewBox="0 0 580 156" fill="none" xmlns="http://www.w3.org/2000/svg">
<rect x="13.5" y="18" width="56" height="56" rx="8" fill="#2DD27F"/>
<rect x="77.5" y="18" width="56" height="56" rx="8" fill="#4D4D4D"/>
<rect x="13.5" y="82" width="56" height="56" rx="8" fill="#808080"/>
<rect x="77.5" y="82" width="56" height="56" rx="8" fill="#1B7E4D"/>
<path d="M166.3 113L194.3 43.3H204L232 113H217.9L199.3 62.4L180.4 113H166.3ZM184.7 99.4L188.7 87.8H209.7L213.9 99.4H184.7ZM238.983 113V63.7H251.483V74.9L249.483 75.1C250.349 72.1 251.616 69.7 253.283 67.9C254.949 66.1 256.883 64.8 259.083 64C261.283 63.1333 263.549 62.7 265.883 62.7C271.483 62.7 275.849 64.3 278.983 67.5C282.183 70.6333 283.783 75.0667 283.783 80.8V113H271.283V85.4C271.283 81.2667 270.549 78.2667 269.083 76.4C267.616 74.4667 265.316 73.5 262.183 73.5C259.783 73.5 257.783 74.0667 256.183 75.2C254.649 76.2667 253.483 77.9667 252.683 80.3C251.883 82.6333 251.483 85.6667 251.483 89.4V113H238.983ZM314.228 114C311.561 114 309.095 113.5 306.828 112.5C304.561 111.5 302.728 109.867 301.328 107.6C299.995 105.333 299.328 102.3 299.328 98.5V52.2L311.928 45.5V95.1C311.928 97.9667 312.295 100.133 313.028 101.6C313.828 103.067 315.361 103.8 317.628 103.8C318.295 103.8 319.028 103.733 319.828 103.6C320.695 103.467 321.628 103.267 322.628 103V112.5C321.228 113.033 319.828 113.4 318.428 113.6C317.028 113.867 315.628 114 314.228 114ZM290.328 73.4V63.7H322.628V73.4H290.328ZM332.047 113V63.7H344.447V113H332.047ZM331.647 56.1V43.3H344.947V56.1H331.647ZM373.759 114C370.092 114 366.892 113.467 364.159 112.4C361.425 111.333 359.092 110 357.159 108.4C355.292 106.8 353.792 105.267 352.659 103.8L361.159 96.4C362.292 98.2667 363.892 100 365.959 101.6C368.092 103.133 370.725 103.9 373.859 103.9C376.325 103.9 378.225 103.433 379.559 102.5C380.959 101.5 381.659 100.267 381.659 98.8C381.659 97.6 381.225 96.6333 380.359 95.9C379.492 95.1 378.325 94.4667 376.859 94C375.392 93.4667 373.759 92.9667 371.959 92.5C370.092 91.9667 368.159 91.3667 366.159 90.7C364.159 90.0333 362.325 89.1667 360.659 88.1C358.992 86.9667 357.625 85.5333 356.559 83.8C355.559 82.0667 355.059 79.9 355.059 77.3C355.059 72.9667 356.759 69.4667 360.159 66.8C363.559 64.0667 368.059 62.7 373.659 62.7C377.592 62.7 381.159 63.5 384.359 65.1C387.559 66.6333 390.092 68.8667 391.959 71.8L384.259 77.9C383.059 75.9667 381.459 74.5333 379.459 73.6C377.525 72.6 375.459 72.1 373.259 72.1C371.325 72.1 369.725 72.4667 368.459 73.2C367.259 73.9333 366.659 74.9333 366.659 76.2C366.659 77.0667 366.925 77.8 367.459 78.4C368.059 79 368.992 79.5333 370.259 80C371.592 80.4 373.325 80.8667 375.459 81.4C377.459 81.8667 379.525 82.4333 381.659 83.1C383.792 83.7667 385.792 84.6667 387.659 85.8C389.525 86.9333 391.025 88.4333 392.159 90.3C393.292 92.1667 393.859 94.5333 393.859 97.4C393.859 100.667 393.025 103.567 391.359 106.1C389.692 108.567 387.359 110.5 384.359 111.9C381.359 113.3 377.825 114 373.759 114ZM421.227 114C417.227 114 413.86 113.2 411.127 111.6C408.46 110 406.46 107.733 405.127 104.8C403.86 101.867 403.227 98.4333 403.227 94.5V63.7H415.627V91.4C415.627 93.6667 415.893 95.7 416.427 97.5C416.96 99.2333 417.893 100.633 419.227 101.7C420.627 102.7 422.527 103.2 424.927 103.2C427.86 103.2 430.06 102.367 431.527 100.7C433.06 99.0333 434.093 96.7333 434.627 93.8C435.227 90.8 435.527 87.3 435.527 83.3V63.7H447.927V113H435.527V102.3L437.227 103.3C435.76 107.1 433.593 109.833 430.727 111.5C427.86 113.167 424.693 114 421.227 114ZM460.272 113V63.7H472.772V74.9L470.772 75.1C471.639 72.1 472.905 69.7 474.572 67.9C476.239 66.1 478.172 64.8 480.372 64C482.572 63.1333 484.839 62.7 487.172 62.7C492.772 62.7 497.139 64.3 500.272 67.5C503.472 70.6333 505.072 75.0667 505.072 80.8V113H492.572V85.4C492.572 81.2667 491.839 78.2667 490.372 76.4C488.905 74.4667 486.605 73.5 483.472 73.5C481.072 73.5 479.072 74.0667 477.472 75.2C475.939 76.2667 474.772 77.9667 473.972 80.3C473.172 82.6333 472.772 85.6667 472.772 89.4V113H460.272ZM538.717 114C534.451 114 530.784 113.3 527.717 111.9C524.651 110.5 522.117 108.633 520.117 106.3C518.184 103.9 516.751 101.2 515.817 98.2C514.884 95.1333 514.417 91.9333 514.417 88.6C514.417 85.4 514.884 82.2667 515.817 79.2C516.751 76.1333 518.151 73.3667 520.017 70.9C521.884 68.4333 524.284 66.4667 527.217 65C530.217 63.4667 533.784 62.7 537.917 62.7C541.784 62.7 545.151 63.3667 548.017 64.7C550.884 65.9667 553.251 67.7667 555.117 70.1C556.984 72.3667 558.384 75.0333 559.317 78.1C560.317 81.1667 560.817 84.4333 560.817 87.9C560.817 88.3667 560.784 89.0333 560.717 89.9C560.717 90.7 560.651 91.5667 560.517 92.5H526.817C527.151 96.0333 528.451 98.7 530.717 100.5C533.051 102.3 535.951 103.2 539.417 103.2C541.951 103.2 544.417 102.767 546.817 101.9C549.217 100.967 551.351 99.6667 553.217 98L559.417 106.4C557.084 108.2 554.884 109.667 552.817 110.8C550.751 111.933 548.584 112.733 546.317 113.2C544.117 113.733 541.584 114 538.717 114ZM548.517 86.3C548.651 85.7667 548.751 85.2333 548.817 84.7C548.951 84.1667 549.017 83.6667 549.017 83.2C549.017 81.8 548.751 80.5 548.217 79.3C547.684 78.0333 546.951 76.9333 546.017 76C545.084 75.0667 543.951 74.3667 542.617 73.9C541.351 73.3667 539.884 73.1 538.217 73.1C535.751 73.1 533.684 73.6 532.017 74.6C530.351 75.6 529.084 76.9 528.217 78.5C527.417 80.0333 526.917 81.6333 526.717 83.3H552.717L548.517 86.3Z" fill="white"/>
</svg>
